<svg xmlns="http://www.w3.org/2000/svg"><defs><font id="undertale_sansregular" horiz-adv-x="1024"><font-face ascent="1638" descent="-410" units-per-em="2048"/><glyph horiz-adv-x="0"/><glyph horiz-adv-x="682"/><glyph horiz-adv-x="640"/><glyph horiz-adv-x="640"/><glyph horiz-adv-x="640"/><glyph d="M0 0v256h256V0zm0 384v896h256V384z" horiz-adv-x="768" unicode="!"/><glyph d="M0 768v512h256V768zm384 0v512h256V768z" horiz-adv-x="768" unicode="&quot;"/><glyph d="M0 256v256h256v256H128v256h256v256h256v-256h128v256h256v-256h128V768H896V512h256V256H768V0H512v256H384V0H128v256zm512 256h128v256H512z" horiz-adv-x="1280" unicode="#"/><glyph d="M0 0v256h384v256H128v128H0v384h128v128h128v128h128v256h256v-256h256v-256H640V768h256V640h128V128H768V0H640v-256H384V0zm256 768h128v256H256zm384-512h128v256H640z" horiz-adv-x="1152" unicode="$"/><glyph d="M0 768v384h128v128h384v-128h128v-128h128v256h256v-256H896V768H768V512H640V256H512V0H256v256h128v256h128v128H128v128zm256 128h128v128H256zm512-768v384h128v128h384V512h128V128h-128V0H896v128zm256 128h128v128h-128z" horiz-adv-x="1536" unicode="%"/><glyph d="M0 128v512h128v128h128v384h128v128h384v-128h128V896H768V768H640V640h128V512h128v128h256V384h-128V128h128V0H896v128H768V0H128v128zm256 128h384v128H512v256H384V512H256zm256 640h128v128H512z" horiz-adv-x="1280" unicode="&amp;"/><glyph d="M0 768v512h256V768z" horiz-adv-x="384" unicode="'"/><glyph d="M0-128v896h128v256h128v256h256v-256H384V768H256v-896h128v-128h128v-256H256v128H128v256z" horiz-adv-x="640" unicode="("/><glyph d="M0-256h128v128h128v896H128v256H0v256h256v-256h128V768h128v-896H384v-256H256v-128H0z" horiz-adv-x="640" unicode=")"/><glyph d="M0 640v128h128v256H0v128h256v128h256v-128h256v-128H640V768h128V640H512v128H256V640z" unicode="*"/><glyph d="M0 384v256h256v256h256V640h256V384H512V128H256v256z" horiz-adv-x="896" unicode="+"/><glyph d="M0 0h128v128h128v-256H128v-128H0z" horiz-adv-x="768" unicode=","/><glyph d="M0 384v256h768V384z" horiz-adv-x="896" unicode="-"/><glyph d="M0 0v256h256V0z" horiz-adv-x="768" unicode="."/><glyph d="M0-128v256h128v256h128v256h128v256h128v256h128v128h128v-256H640V640H512V512H384V256H256v-384z" horiz-adv-x="896" unicode="/"/><glyph d="M0 256v768h128v128h128v128h384v-256h128V256H640V0H128v256zm256 0h256v768H256z" unicode="0"/><glyph d="M0 0v256h256v640H0v256h256v128h256V256h256V0z" unicode="1"/><glyph d="M0 0v384h128v128h128v128h128v128h256v256H256V896H0v256h256v128h512v-128h128V768H768V640H640V512H384V384H256V256h640V0z" horiz-adv-x="1152" unicode="2"/><glyph d="M0 128v256h256V256h256v256H128v256h384v256H256V896H0v256h128v128h512v-128h128V768H640V640h128V128H640V0H128v128z" unicode="3"/><glyph d="M0 384v256h128v128h128V640h256v256H384v256h128v128h256V640h128V384H768V0H512v384zm256 384v128h128V768z" horiz-adv-x="1152" unicode="4"/><glyph d="M0 128v256h128V256h384v384H0v640h768v-256H256V896h384V768h128V256H640V128H512V0H128v128z" unicode="5"/><glyph d="M0 128v768h128v128h128v128h128v128h256v-256H512V896H384V768h256V640h128V128H640V0H128v128zm256 128h256v256H256z" unicode="6"/><glyph d="M0 1024v256h896v-256H768V896H640v128zM128 0v256h128v256h128v256h128v128h128V640H512V256H384V0z" horiz-adv-x="1152" unicode="7"/><glyph d="M0 128v384h128v256H0v384h128v128h512v-128h128V768H640V512h128V128H640V0H128v128zm256 128h256v256H256zm0 512h256v256H256z" unicode="8"/><glyph d="M0 512v640h128v128h512v-128h128V512H640V256H512V128H384V0H128v256h256v128H128v128zm256 128h256v384H256z" unicode="9"/><glyph d="M0 128v256h256V128zm0 512v256h256V640z" horiz-adv-x="768" unicode=":"/><glyph d="M0-128v256h128v128h256V0H256v-128zm128 768v256h256V640z" horiz-adv-x="512" unicode=";"/><glyph d="M0 384v128h128v128h128v128h128v128h128V640H384V512H256V384h128V256h128V128H256v128H128v128z" horiz-adv-x="640" unicode="&lt;"/><glyph d="M0 128v256h768V128zm0 512v256h768V640z" horiz-adv-x="896" unicode="="/><glyph d="M0 128v128h128v128h128v128H128v128H0v256h128V768h128V640h256V384H384V256H256V128z" horiz-adv-x="640" unicode="&gt;"/><glyph d="M0 896v256h128v128h512v-128h128v-128h128V768H768V640H640V512H512V384H256v256h256v128h128v128H512v128H256V896zM256 0v256h256V0z" unicode="?"/><glyph d="M0 256v640h128v128h128v128h128v128h768v-128h256v-128h128V512h-128V384H512v128H384v256h256V640h128v128H640v128h256V768h128V640h256v256h-128v128H512V896H384V768H256V384h128V256h128V128h384v128h256V0h-128v-128H384V0H256v128H128v128z" horiz-adv-x="1664" unicode="@"/><glyph d="M0 0v256h128v256h128v256h128v256h128v128h128v128h128V896h128V256h128V0H768v384H384V256H256V0zm512 640h128v128H512z" horiz-adv-x="1280" unicode="A"/><glyph d="M0 0v1280h512v-128h256V768H640V640h128V512h128V256H768V128H640V0zm256 256h256v128h128v128H256zm0 512h256v256H256z" horiz-adv-x="1152" unicode="B"/><glyph d="M0 256v512h128v128h128v256h256v128h512V896H768v128H512V896H384V640H256V256h512v128h256V128H768V0H256v128H128v128z" horiz-adv-x="1280" unicode="C"/><glyph d="M0 128v1152h256v-128h256v-128h128V896h128V768h128V384H768V128H640V0H128v128zm256 128h256v128h128v384H512v128H384v128H256z" horiz-adv-x="1152" unicode="D"/><glyph d="M0 128v1152h896v-256H256V768h640V512H256V256h640V0H128v128z" horiz-adv-x="1152" unicode="E"/><glyph d="M0 0v1280h768v-256H256V768h512V512H256V0z" unicode="F"/><glyph d="M0 128v640h128v256h128v128h128v128h512v-128h128V896H768v128H512V896H384V768H256V256h512v128H384v128h128v128h640V256h-128V128H768V0H128v128z" horiz-adv-x="1408" unicode="G"/><glyph d="M0 0v1280h256V768h512v512h256V0H768v512H256V0z" horiz-adv-x="1280" unicode="H"/><glyph d="M0 0v256h256v768H0v256h768v-256H512V256h256V0z" unicode="I"/><glyph d="M0 128v256h256V128h256v896H128v256h896v-256H768V0H640v-128H256V0H128v128z" horiz-adv-x="1280" unicode="J"/><glyph d="M0 0v1280h256V896h128v128h128v128h128v128h256v-256H768V896H640V768H512V640H384V512h128V384h256V256h128V0H640v128H512v128H384v128H256V0z" horiz-adv-x="1152" unicode="K"/><glyph d="M0 0v1280h256V256h512V0z" unicode="L"/><glyph d="M0 0v384h128v512h128v384h256V896h128V512h128v384h128v384h256V640h128V0h-256v640H896V256H768V0H512v384H256V0z" horiz-adv-x="1536" unicode="M"/><glyph d="M0 0v1280h256v-256h128V896h128V640H384v128H256V0zm512 384v256h128V512h128V384h128v896h256V0H896v128H768v128H640v128z" horiz-adv-x="1408" unicode="N"/><glyph d="M0 256v640h128v128h128v128h128v128h640v-128h128v-128h128V384h-128V256h-128V128H896V0H256v128H128v128zm256 128h128V256h384v128h128v128h128v384H896v128H512V896H384V768H256z" horiz-adv-x="1536" unicode="O"/><glyph d="M0 0v1280h512v-128h128V640H512V512H256V0zm256 768h128v256H256z" horiz-adv-x="896" unicode="P"/><glyph d="M0 256v640h128v128h128v128h256v128h512v-128h256V896h128V256h-128V128h-128V0h128v-128h128v-256h-256v128h-128v128H384V0H256v128H128v128zm256 128h128V256h128V128h128v256h256V128h128v128h128v512h-128v256H512V896H384V768H256z" horiz-adv-x="1664" unicode="Q"/><glyph d="M0 0v1280h512v-128h128v-128h128V640H640V512H512V384h128V256h128V0H640v128H512v128H384v128H256V0zm256 640h256v256H384v128H256z" unicode="R"/><glyph d="M0 128v256h256V256h384v128h128v128H256v128H128v384h128v128h128v128h384v-128h128v-128H384V768h512V640h128V256H896V128H768V0H128v128z" horiz-adv-x="1280" unicode="S"/><glyph d="M0 1024v256h1024v-256H640V0H384v1024z" horiz-adv-x="1280" unicode="T"/><glyph d="M0 256v1024h256V384h128V256h256v256h128v768h256V512H896V256H768V128H640V0H256v128H128v128z" horiz-adv-x="1280" unicode="U"/><glyph d="M0 896v384h256v-256h128V512h256v384h128v256h128v128h256v-256h-128V768H896V512H768V128H640V0H384v256H256v256H128v384z" horiz-adv-x="1408" unicode="V"/><glyph d="M0 896v384h256V896h128V640h128v256h128v384h256V768h128V384h128v384h128v256h128v256h256v-256h-128V768h-128V512h-128V128h-128V0H896v384H768v256H640V256H512V0H256v384H128v512z" horiz-adv-x="1920" unicode="W"/><glyph d="M0 0v256h128v128h128v128h128v256H256v128H128v128H0v256h256v-128h128v-128h128V896h128v128h128v128h128v128h256v-256h-128V896H896V768H768V512h128V384h128V256h128V0H896v128H768v256H512V256H384V128H256V0z" horiz-adv-x="1408" unicode="X"/><glyph d="M0 1024v256h256v-128h128V768h256v256h128v256h256v-256H896V768H768V384H640V128H512V0H256v256h128v384H256v128H128v256z" horiz-adv-x="1280" unicode="Y"/><glyph d="M0 0v256h128v128h128v256h128v128h128v128h128v128H0v256h1024v-256H768V768H640V640H512V512H384V256h640V0z" horiz-adv-x="1280" unicode="Z"/><glyph d="M0-512v1792h512v-256H256V-256h256v-256z" horiz-adv-x="640" unicode="["/><glyph d="M0 1024v256h256v-256h128V768h128V384h128V128h128v-256H512v256H384v384H256v256H128v256z" horiz-adv-x="896" unicode="\"/><glyph d="M0-256h256v1280H0v256h512V-512H0z" horiz-adv-x="640" unicode="]"/><glyph d="M0 1024v128h128v128h128v128h256v-128h128v-128h128v-128H512v128H256v-128z" horiz-adv-x="896" unicode="^"/><glyph d="M0-128h1024v-128H0z" horiz-adv-x="1152" unicode="_"/><glyph d="M0 1280v128h256v-128h128v-256H128v256z" horiz-adv-x="512" unicode="`"/><glyph d="M0 128v512h128v128h128v128h384V768h128V0H128v128zm256 128h256v384H384V512H256z" unicode="a"/><glyph d="M0 0v1280h256V896h384V768h128V256H640V128H512V0zm256 256h256v384H256z" unicode="b"/><glyph d="M0 128v512h128v128h128v128h384V768h128V512H640v128H384V512H256V256h384v128h128V128H640V0H128v128z" unicode="c"/><glyph d="M0 128v512h128v128h128v128h384v384h256V0H256v128zm256 128h384v384H256z" horiz-adv-x="1152" unicode="d"/><glyph d="M0 128v512h128v128h128v128h384V768h128V384H512V256h256V128H640V0H128v128zm256 256h128v128h128v128H256z" unicode="e"/><glyph d="M0 640v256h256v256h128v128h384v-256H512V896h256V640H512v-768H256v768z" unicode="f"/><glyph d="M0 128v512h128v128h128v128h384V768h128V-256H640v-128H512v-128H0v256h384v128h128V0H128v128zm256 128h128v128h128v256H256z" unicode="g"/><glyph d="M0 0v1280h256V896h384V768h128V0H512v640H384V512H256V0z" unicode="h"/><glyph d="M0 0v896h256V0zm0 1024v256h256v-256z" horiz-adv-x="512" unicode="i"/><glyph d="M0 0h256v-256h128V896h256V-384H512v-128H128v256H0zm384 1024v256h256v-256z" horiz-adv-x="896" unicode="j"/><glyph d="M0 0v1280h256V640h128v128h128v128h256V640H640V512H512V384h128V256h128V0H512v256H384v128H256V0z" unicode="k"/><glyph d="M0 0v1280h256V0z" horiz-adv-x="512" unicode="l"/><glyph d="M0 0v896h256V768h128v128h640V0H768v640H640V0H384v512H256V0z" horiz-adv-x="1280" unicode="m"/><glyph d="M0 0v896h256V768h128v128h256V768h128V0H512v640H384V512H256V0z" unicode="n"/><glyph d="M0 128v512h128v128h128v128h384V768h128V256H640V128H512V0H128v128zm256 128h256v384H256z" unicode="o"/><glyph d="M0-512V896h640V768h128V128H640V0H256v-512zm256 768h256v384H256z" unicode="p"/><glyph d="M0 128v512h128v128h128v128h512V-512H512V0H128v128zm256 128h256v384H384V512H256z" unicode="q"/><glyph d="M0 0v896h768V512H512v128H384V512H256V0z" unicode="r"/><glyph d="M0 0v256h384v128H128v128H0v256h128v128h512V640H256V512h256V384h128V128H512V0z" horiz-adv-x="896" unicode="s"/><glyph d="M0 640v256h256v256h256V896h256V640H512V0H256v640z" unicode="t"/><glyph d="M0 128v768h256V256h256v640h256V0H128v128z" unicode="u"/><glyph d="M0 640v256h256V640h256v256h256V640H640V256H512V0H256v256H128v384z" unicode="v"/><glyph d="M0 256v640h256V512h128v384h256V384h128v512h256V512H896V128H768V0H640v128H512v256H384V128H256V0H128v256z" horiz-adv-x="1280" unicode="w"/><glyph d="M0 0v256h128v128h128v128H128v128H0v256h256V768h128V640h128v128h128v128h256V640H768V512H640V384h128V256h128V0H640v128H512v128H384V128H256V0z" horiz-adv-x="1152" unicode="x"/><glyph d="M0 640v256h256V640h128V384h128v384h128v128h256V640H768V384H640V0H512v-256H384v-256H128v384h128v512H128v256z" horiz-adv-x="1152" unicode="y"/><glyph d="M0 0v256h128v128h128v128h128v128H0v256h768V640H640V512H512V384H384V256h384V0z" unicode="z"/><glyph d="M0 256v256h128v640h128v128h384v-256H384V512H256V384h128v-640h256v-256H256v128H128v640z" horiz-adv-x="768" unicode="{"/><glyph d="M0-512v1792h256V-512z" horiz-adv-x="384" unicode="|"/><glyph d="M0-256h256v640h128v128H256v512H0v256h384v-128h128V512h128V384H512v-768H384v-128H0z" horiz-adv-x="768" unicode="}"/><glyph d="M0 384v256h128v128h384V512H384v128H256V512H128V384zm512 0v128h128v128h128v128h128V512H768V384z" unicode="~"/><glyph d="M0 384v256h768V384z" horiz-adv-x="896" unicode="­"/><glyph horiz-adv-x="768"/><glyph horiz-adv-x="1536"/><glyph horiz-adv-x="768"/><glyph horiz-adv-x="1536"/><glyph horiz-adv-x="512"/><glyph horiz-adv-x="384"/><glyph horiz-adv-x="256"/><glyph horiz-adv-x="256"/><glyph horiz-adv-x="192"/><glyph horiz-adv-x="307"/><glyph horiz-adv-x="85"/><glyph d="M0 384v256h768V384z" horiz-adv-x="896" unicode="‐"/><glyph d="M0 384v256h768V384z" horiz-adv-x="896" unicode="‑"/><glyph d="M0 384v256h768V384z" horiz-adv-x="896" unicode="‒"/><glyph d="M0 384v256h1024V384z" horiz-adv-x="1152" unicode="–"/><glyph d="M0 384v256h2048V384z" horiz-adv-x="2176" unicode="—"/><glyph horiz-adv-x="307"/><glyph horiz-adv-x="384"/><glyph d="M0 0v900h900V0z" horiz-adv-x="900" unicode="◼"/></font>
</defs>
</svg>
